<?xml version="1.0" standalone="no"?>
<!DOCTYPE svg PUBLIC "-//W3C//DTD SVG 20010904//EN"
 "http://www.w3.org/TR/2001/REC-SVG-20010904/DTD/svg10.dtd">
<svg version="1.0" xmlns="http://www.w3.org/2000/svg"
 width="959.000000pt" height="959.000000pt" viewBox="0 0 959.000000 959.000000"
 preserveAspectRatio="xMidYMid meet">
<metadata>
Created by potrace 1.11, written by Peter Selinger 2001-2013
</metadata>
<g transform="translate(0.000000,959.000000) scale(0.100000,-0.100000)"
fill="#000000" stroke="none">
<path d="M585 9510 c6 -70 5 -80 -9 -80 -9 0 -16 -7 -16 -15 0 -20 -30 -32
-40 -15 -5 8 -13 9 -24 3 -14 -8 -10 -12 23 -22 23 -6 41 -16 41 -21 0 -6 7
-10 15 -10 11 0 15 11 15 40 0 22 5 40 10 40 6 0 10 18 10 40 0 36 3 40 25 40
23 0 25 -4 25 -40 0 -29 4 -40 15 -40 11 0 15 -12 15 -42 l1 -43 20 43 c11 23
25 42 31 42 16 0 37 -32 38 -57 0 -13 5 -23 10 -23 6 0 10 11 10 25 0 23 4 25
43 25 31 0 38 -3 27 -10 -10 -6 -11 -10 -2 -10 6 0 12 -7 12 -15 0 -8 2 -15 6
-15 12 0 74 56 74 68 0 6 5 12 10 12 6 0 10 -6 10 -14 0 -8 7 -16 15 -20 8 -3
15 -15 15 -26 0 -11 -7 -20 -15 -20 -9 0 -15 9 -15 25 0 14 -4 25 -10 25 -6 0
-10 -28 -10 -65 0 -58 -2 -65 -20 -65 -13 0 -20 -7 -20 -20 0 -11 -9 -25 -20
-32 -24 -15 -26 -28 -5 -28 9 0 12 -6 9 -15 -4 -8 -15 -15 -25 -15 -12 0 -19
-7 -19 -19 0 -11 -2 -25 -3 -33 -2 -7 -2 -10 0 -5 10 17 23 5 23 -23 0 -16 -4
-30 -10 -30 -5 0 -10 -4 -10 -10 0 -5 9 -10 20 -10 21 0 29 -33 10 -45 -5 -3
-10 -1 -10 4 0 18 -15 13 -44 -14 -23 -21 -34 -24 -72 -20 l-44 4 0 -44 c0
-43 -1 -45 -30 -45 -16 0 -30 -4 -30 -10 0 -5 5 -10 10 -10 6 0 10 -4 10 -10
0 -5 -17 -10 -37 -10 -21 0 -66 -2 -100 -6 -54 -5 -63 -9 -63 -25 0 -11 -4
-18 -9 -14 -5 3 -12 -4 -16 -15 -8 -26 -48 -53 -110 -75 -74 -26 -133 -53
-140 -64 -9 -16 -87 -48 -149 -62 l-56 -12 0 -4279 0 -4278 1397 2 1397 3 12
25 c7 14 18 50 24 80 12 53 159 362 200 420 11 15 20 32 20 37 0 6 17 34 39
65 21 30 55 85 75 121 50 92 105 179 170 269 31 42 56 79 56 83 0 3 11 21 25
39 14 18 25 37 25 43 0 5 9 18 20 28 11 10 34 42 51 71 32 58 206 324 236 364
33 43 74 161 74 213 0 10 -5 25 -11 32 -14 17 -272 63 -482 85 -70 7 -98 13
-220 42 -21 5 -42 18 -48 28 -6 11 -9 57 -8 103 3 75 5 82 23 79 45 -5 76 -5
82 2 4 3 1 34 -6 67 -11 54 -10 64 6 91 21 37 109 71 213 82 138 16 374 76
401 103 10 10 -66 82 -145 138 -16 11 -45 34 -65 52 -20 17 -49 43 -66 58 -53
46 -74 52 -185 53 -138 1 -336 39 -391 76 -35 22 -77 86 -81 122 -3 25 1 29
32 34 20 3 41 9 47 13 18 11 -6 62 -38 81 -49 29 -89 84 -89 122 0 19 -4 33
-9 30 -14 -9 -22 23 -11 44 21 40 11 78 -46 162 -88 131 -90 139 -134 414 -11
69 -13 307 -4 378 5 36 12 50 28 56 14 5 24 4 31 -4 24 -31 119 -63 142 -48 7
4 19 25 28 46 9 21 31 52 48 68 58 54 218 169 255 185 20 8 51 28 69 45 34 33
39 36 134 86 35 19 72 40 83 48 11 8 34 14 52 14 17 0 52 6 78 14 41 13 52 13
81 0 45 -18 80 -18 139 2 88 30 194 2 222 -59 9 -18 22 -43 30 -57 25 -41 13
-229 -19 -300 -41 -91 -97 -153 -170 -189 -82 -40 -144 -48 -221 -28 -33 9
-64 14 -69 10 -13 -8 3 -155 21 -183 19 -31 175 -186 201 -200 47 -24 115 -7
281 71 215 102 220 106 245 204 9 33 23 71 32 84 25 38 42 116 53 241 6 63 13
142 17 175 10 97 8 121 -16 151 -22 27 -22 34 -17 184 5 159 18 225 55 280 10
14 23 39 30 55 6 17 21 41 32 54 18 22 24 23 89 17 38 -3 92 -15 120 -26 28
-11 62 -20 75 -20 13 0 30 -6 37 -14 22 -22 75 -46 101 -46 48 0 67 -29 88
-130 11 -51 17 -107 14 -124 -3 -17 -7 -44 -10 -60 -2 -15 -25 -58 -50 -95
-25 -37 -45 -71 -45 -75 0 -5 -14 -24 -30 -43 -49 -55 -42 -70 38 -76 171 -15
180 -17 207 -53 38 -49 58 -44 85 20 21 52 26 57 98 94 43 22 88 43 102 47 14
4 41 18 60 30 19 12 80 45 135 75 55 29 102 56 105 60 3 4 35 32 72 62 64 52
92 82 148 154 104 134 196 247 237 290 26 28 81 88 122 132 77 85 102 102 126
82 12 -10 15 -10 15 1 1 8 8 -2 16 -21 21 -46 14 -212 -11 -290 -21 -63 -60
-177 -82 -235 -17 -46 -10 -136 10 -116 6 6 18 11 27 11 9 0 25 9 35 20 10 11
24 20 32 20 18 0 63 29 88 57 11 13 28 23 36 23 15 0 104 40 172 76 42 23 57
12 57 -40 0 -40 13 -69 22 -49 6 15 79 43 111 43 41 0 48 -6 77 -60 22 -40 25
-57 25 -165 0 -130 -19 -230 -48 -259 -9 -10 -24 -31 -32 -47 -17 -33 -46 -62
-98 -102 -32 -24 -44 -28 -77 -22 -32 5 -40 3 -49 -14 -7 -13 -8 -28 -2 -43 5
-13 15 -43 22 -68 16 -53 45 -97 69 -103 10 -3 28 -23 39 -46 16 -30 28 -41
44 -41 29 0 108 50 164 103 23 22 53 47 66 56 28 18 94 102 107 135 4 12 6 44
3 70 -4 34 1 71 16 125 68 231 96 285 140 262 13 -7 21 -21 21 -37 0 -14 7
-39 16 -56 l16 -30 26 23 c15 13 29 27 32 31 3 4 22 18 43 32 l37 25 0 -22 c0
-12 -9 -49 -19 -82 -11 -33 -29 -91 -40 -130 -11 -38 -27 -92 -35 -120 -30
-98 -126 -495 -126 -522 0 -15 11 -38 26 -54 l27 -28 -2 -203 c-2 -224 -10
-272 -58 -336 -45 -60 -101 -101 -139 -102 -24 0 -76 -53 -114 -115 -32 -53
-120 -145 -200 -208 -36 -28 -105 -90 -153 -137 -49 -47 -98 -90 -110 -97 -12
-6 -47 -41 -77 -77 -30 -36 -58 -66 -62 -66 -5 0 -8 -11 -8 -24 0 -20 8 -25
63 -39 34 -9 97 -19 140 -22 63 -6 79 -10 88 -27 6 -11 9 -21 7 -23 -2 -2 -53
-9 -113 -15 -61 -6 -128 -16 -150 -22 -22 -6 -83 -10 -136 -10 -78 1 -101 -2
-125 -18 -16 -11 -38 -25 -48 -32 -11 -7 -40 -32 -65 -56 -25 -23 -55 -45 -66
-48 -22 -7 -95 -80 -95 -96 0 -11 37 -65 62 -90 10 -10 18 -25 18 -33 0 -8 4
-15 10 -15 5 0 15 -19 21 -42 7 -24 18 -50 25 -58 7 -9 16 -35 20 -58 4 -24
13 -49 20 -57 17 -17 54 -110 54 -136 0 -20 -46 -118 -138 -294 -50 -95 -93
-194 -137 -310 -14 -38 -34 -88 -44 -110 -11 -22 -22 -51 -26 -65 -4 -14 -11
-30 -15 -35 -5 -6 -15 -37 -23 -70 -23 -93 -145 -514 -177 -610 -11 -33 -20
-69 -20 -80 0 -11 -9 -45 -20 -75 -11 -30 -20 -56 -20 -57 0 -2 574 -3 1275
-3 l1274 0 -5 33 c-4 17 -14 50 -24 72 -27 62 -118 309 -157 425 -19 57 -38
109 -42 115 -14 18 -58 139 -65 177 -7 36 -51 144 -83 203 -9 17 -39 56 -67
87 -41 47 -55 57 -80 56 -17 0 -59 13 -92 31 -34 17 -66 31 -71 31 -12 0 -117
44 -155 65 -14 8 -33 15 -41 15 -17 0 -137 47 -204 80 -23 11 -49 20 -58 20
-9 0 -37 23 -64 50 -35 36 -56 50 -76 50 -58 0 -79 51 -97 243 -11 120 -11
130 7 160 26 43 25 123 -2 212 -12 39 -29 109 -39 157 -16 84 -16 88 3 120 16
28 27 34 68 40 28 4 55 14 62 24 8 11 21 15 38 12 14 -3 59 1 98 8 40 8 87 14
105 14 47 0 92 -26 104 -61 11 -33 15 -34 54 -14 62 32 131 10 154 -50 5 -14
10 -59 11 -98 2 -116 17 -147 34 -69 4 19 17 40 33 50 15 9 29 19 32 22 24 25
39 30 64 20 28 -10 35 -30 11 -30 -14 0 -20 -22 -16 -61 1 -10 -13 -23 -34
-33 -26 -13 -35 -23 -35 -41 0 -16 6 -25 16 -25 30 0 54 20 54 46 0 17 7 28
19 31 11 3 22 15 25 28 3 13 19 28 38 36 37 15 82 62 118 123 50 85 64 102
100 130 24 18 42 42 49 67 7 21 15 39 20 39 10 0 31 67 23 74 -12 13 -52 5
-52 -9 0 -8 -7 -15 -15 -15 -18 0 -20 16 -4 26 6 3 20 26 31 50 19 44 31 53
43 34 4 -6 11 -8 16 -5 5 4 9 1 9 -4 0 -6 -4 -11 -9 -11 -15 0 -20 -39 -6 -50
9 -7 19 -2 39 22 14 17 26 38 26 46 0 8 9 25 20 39 11 14 20 36 20 49 0 13 9
46 20 74 45 114 52 560 10 709 -11 41 -20 88 -20 105 0 31 -10 90 -56 325 -26
137 -29 187 -13 244 8 30 14 37 28 32 14 -4 22 4 36 35 10 22 23 40 29 40 6 0
24 -14 40 -30 36 -37 47 -37 88 -1 51 44 77 54 155 60 l71 6 40 -40 c33 -35
40 -49 46 -100 4 -33 19 -112 33 -175 14 -63 28 -156 33 -206 4 -50 12 -100
19 -112 6 -11 11 -42 12 -69 0 -26 3 -66 7 -88 14 -77 23 -16 24 162 1 167 11
243 34 243 26 0 93 -131 94 -185 0 -22 7 -67 15 -100 18 -73 51 -309 71 -504
14 -143 28 -216 45 -237 5 -6 5 -15 1 -19 -4 -5 -1 -5 6 -1 9 6 12 -41 13
-216 1 -123 5 -236 9 -253 l7 -30 7 30 c4 17 10 38 12 47 3 9 0 63 -5 120 -6
57 -13 222 -16 368 -3 146 -9 310 -14 365 -7 94 2 441 15 530 7 50 35 110 52
110 28 0 35 60 10 92 -13 16 -13 225 0 249 6 12 11 52 10 90 0 57 5 80 31 135
17 36 31 75 31 86 0 11 3 23 7 26 3 4 8 19 9 33 2 14 9 34 17 43 20 23 34 65
52 151 32 158 47 226 55 255 4 17 11 57 15 89 4 33 11 70 16 83 5 13 13 82 19
155 11 139 3 268 -25 377 -8 30 -12 58 -10 61 14 22 -42 215 -72 251 -12 15
-38 131 -49 221 -5 36 17 120 37 144 5 6 7 26 4 45 -18 134 -27 244 -30 370
-1 81 -7 162 -13 180 -6 19 -13 147 -16 284 -8 379 -34 525 -109 599 -44 42
-87 108 -87 130 0 7 -18 28 -39 47 -44 39 -66 92 -82 205 -11 69 -13 74 -36
74 -13 0 -23 5 -22 13 1 6 0 19 -4 27 -3 8 -8 63 -10 121 -3 58 -9 115 -15
126 -17 31 -19 358 -2 348 14 -8 37 33 49 87 14 61 -7 118 -43 118 -30 0 -94
60 -100 94 -3 14 -8 36 -11 47 -5 14 -2 25 6 30 8 5 -1547 9 -3527 9 -3214 0
-3542 -1 -3548 -16 -5 -14 -7 -14 -22 0 -20 20 -61 21 -80 1 -21 -21 -94 -20
-94 0 0 14 -17 16 -111 14 -89 -1 -109 -4 -105 -15 3 -8 1 -14 -5 -14 -6 0 -7
-6 -3 -12 4 -8 3 -10 -2 -5 -5 5 -10 13 -10 18 -1 5 -2 14 -3 19 0 6 -8 10
-16 10 -11 0 -15 -11 -15 -40 0 -22 -4 -40 -10 -40 -5 0 -10 18 -10 40 l0 40
-45 0 -45 0 0 -40 c0 -22 -4 -40 -10 -40 -5 0 -10 18 -10 40 l0 40 -110 0
-110 0 0 -40 c0 -22 -4 -40 -10 -40 -5 0 -10 18 -10 40 l0 40 -71 0 -71 0 7
-80z m875 30 c0 -5 -4 -10 -10 -10 -5 0 -10 5 -10 10 0 6 5 10 10 10 6 0 10
-4 10 -10z m-420 -45 c0 -11 11 -15 40 -15 22 0 40 -4 40 -10 0 -5 -18 -10
-40 -10 -29 0 -40 -4 -40 -15 0 -8 -4 -15 -10 -15 -5 0 -10 18 -10 40 0 22 5
40 10 40 6 0 10 -7 10 -15z m100 5 c0 -5 -4 -10 -10 -10 -5 0 -10 5 -10 10 0
6 5 10 10 10 6 0 10 -4 10 -10z m-393 -676 c-3 -3 -12 -4 -19 -1 -8 3 -5 6 6
6 11 1 17 -2 13 -5z m4765 -2849 c29 -38 -68 -270 -122 -293 -25 -12 -38 -38
-44 -94 -1 -3 -4 -10 -8 -14 -5 -4 -8 12 -8 36 0 40 9 81 31 135 4 11 10 36
13 55 4 22 17 44 35 60 17 13 35 42 43 67 7 24 18 43 25 43 7 0 13 5 13 10 0
6 -7 10 -16 10 -8 0 -12 5 -9 10 7 11 30 -2 47 -25z m1495 3 c42 -45 49 -60
78 -181 42 -176 28 -289 -40 -321 -16 -8 -71 -19 -122 -25 -105 -11 -166 -38
-228 -101 -22 -22 -45 -40 -52 -40 -7 0 -13 -6 -13 -13 0 -19 -57 -59 -63 -44
-6 16 10 57 23 57 12 0 54 65 65 100 4 14 13 32 20 40 6 8 17 41 24 72 7 32
17 60 22 63 5 4 9 16 9 28 0 13 6 45 14 72 8 28 24 83 36 124 36 127 72 181
127 191 63 12 68 11 100 -22z m-2079 -220 c34 -44 31 -330 -4 -359 -10 -8 -31
-6 -83 10 -38 12 -80 21 -93 21 -22 0 -145 57 -174 81 -18 15 -18 43 0 77 7
15 19 38 25 52 13 28 106 86 179 112 56 20 136 23 150 6z m2674 -241 c15 -31
30 -57 34 -57 3 0 25 20 50 45 24 25 47 45 52 45 6 0 17 -16 26 -35 11 -22 24
-35 36 -35 17 0 20 -7 20 -44 0 -42 -43 -157 -62 -164 -4 -2 -8 -9 -8 -15 -1
-15 -110 -206 -110 -193 0 6 -5 5 -12 -2 -19 -19 -25 -15 -31 22 -3 19 -15 44
-26 55 -11 11 -23 37 -26 58 -4 21 -11 47 -16 58 -13 27 -82 101 -100 107 -10
3 -6 12 15 33 23 23 27 33 22 60 -9 48 7 81 43 88 19 4 31 13 31 22 0 35 36 7
62 -48z m-3363 -159 c23 -95 30 -190 19 -238 -7 -25 -12 -92 -12 -149 -1 -86
-4 -105 -18 -114 -13 -9 -21 -7 -36 6 -11 10 -35 17 -60 17 -23 0 -61 6 -84
14 -24 8 -60 17 -81 20 -21 4 -54 18 -74 32 -20 13 -42 24 -50 24 -18 0 -116
56 -136 78 -15 16 -14 20 17 52 81 86 198 184 252 212 48 24 222 94 245 97 3
1 11 -23 18 -51z m-649 -43 c0 -8 -9 -24 -20 -35 -11 -11 -20 -24 -20 -30 0
-5 -15 -25 -34 -45 -19 -19 -31 -35 -28 -35 4 -1 -4 -7 -18 -14 -14 -8 -29
-12 -33 -9 -5 3 -15 -4 -23 -16 -8 -12 -22 -21 -30 -21 -16 0 -19 26 -3 36 7
4 2 11 -12 18 -32 16 -33 29 -1 48 49 31 66 43 78 54 7 6 27 17 46 24 18 8 37
20 41 27 11 18 57 17 57 -2z m-230 -180 c0 -9 -6 -12 -15 -9 -8 4 -15 10 -15
15 0 5 7 9 15 9 8 0 15 -7 15 -15z m3825 -292 c-3 -16 -13 -32 -21 -36 -8 -4
-14 -13 -14 -18 0 -28 -98 -139 -116 -132 -21 8 -17 41 9 66 13 12 28 30 33
39 14 27 94 108 106 108 6 0 7 -11 3 -27z m-1025 -2613 c0 -10 -5 -31 -12 -45
-9 -21 -9 -31 0 -46 7 -10 12 -36 12 -58 l0 -39 -31 11 c-33 13 -40 25 -56 94
-12 49 -9 54 37 81 44 26 50 26 50 2z"/>
<path d="M9280 9570 c0 -11 7 -20 15 -20 9 0 19 -8 22 -17 4 -9 29 -40 57 -69
52 -53 104 -120 126 -164 17 -32 73 -100 83 -100 4 0 7 88 7 195 l0 195 -155
0 c-148 0 -155 -1 -155 -20z"/>
<path d="M610 8941 c0 -5 7 -11 15 -15 9 -3 15 0 15 9 0 8 -7 15 -15 15 -8 0
-15 -4 -15 -9z"/>
<path d="M9017 2325 c-4 -22 -3 -54 2 -70 l8 -30 15 30 c14 27 14 34 -2 70
l-17 40 -6 -40z"/>
</g>
</svg>
